<?xml version="1.0" encoding="UTF-8" standalone="no"?>
<!-- Created with Inkscape (http://www.inkscape.org/) -->

<svg
   xmlns:dc="http://purl.org/dc/elements/1.1/"
   xmlns:cc="http://creativecommons.org/ns#"
   xmlns:rdf="http://www.w3.org/1999/02/22-rdf-syntax-ns#"
   xmlns:svg="http://www.w3.org/2000/svg"
   xmlns="http://www.w3.org/2000/svg"
   xmlns:sodipodi="http://sodipodi.sourceforge.net/DTD/sodipodi-0.dtd"
   xmlns:inkscape="http://www.inkscape.org/namespaces/inkscape"
   width="210mm"
   height="297mm"
   viewBox="0 0 744.09448819 1052.3622047"
   id="svg2"
   version="1.1"
   inkscape:version="0.91 r13725"
   sodipodi:docname="drawing.svg"
   inkscape:export-filename="/home/mghobria/Desktop/fish_tracking/Figures/drawing.svg.png"
   inkscape:export-xdpi="90"
   inkscape:export-ydpi="90">
  <defs
     id="defs4" />
  <sodipodi:namedview
     id="base"
     pagecolor="#ffffff"
     bordercolor="#666666"
     borderopacity="1.0"
     inkscape:pageopacity="1"
     inkscape:pageshadow="2"
     inkscape:zoom="0.7"
     inkscape:cx="341.62556"
     inkscape:cy="598.27522"
     inkscape:document-units="px"
     inkscape:current-layer="layer3"
     showgrid="false"
     showguides="true"
     inkscape:guide-bbox="true"
     inkscape:window-width="1280"
     inkscape:window-height="960"
     inkscape:window-x="1280"
     inkscape:window-y="0"
     inkscape:window-maximized="1" />
  <metadata
     id="metadata7">
    <rdf:RDF>
      <cc:Work
         rdf:about="">
        <dc:format>image/svg+xml</dc:format>
        <dc:type
           rdf:resource="http://purl.org/dc/dcmitype/StillImage" />
        <dc:title></dc:title>
      </cc:Work>
    </rdf:RDF>
  </metadata>
  <g
     inkscape:label="Layer 1"
     inkscape:groupmode="layer"
     id="layer1" />
  <g
     inkscape:groupmode="layer"
     id="layer2"
     inkscape:label="Layer 2"
     style="display:none">
    <rect
       style="fill:#0000ff;fill-rule:evenodd;stroke:#000000;stroke-width:1px;stroke-linecap:butt;stroke-linejoin:miter;stroke-opacity:1"
       id="rect3337"
       width="424.28571"
       height="452.85715"
       x="187.14285"
       y="249.50507" />
  </g>
  <g
     inkscape:groupmode="layer"
     id="layer3"
     inkscape:label="Layer 3"
     style="display:inline">
    <path
       style="fill:none;fill-rule:evenodd;stroke:#000000;stroke-width:1px;stroke-linecap:butt;stroke-linejoin:miter;stroke-opacity:1"
       d="M 185.71429,249.50506 C 335.6592,187.76157 475.2459,201.11519 610,249.50506 L 448.57143,702.3622 c -33.80952,-17.95727 -67.61905,-16.31207 -101.42857,0 z"
       id="path3340"
       inkscape:connector-curvature="0"
       sodipodi:nodetypes="ccccc" />
    <path
       style="fill:#a0a0a0;fill-opacity:1;stroke:none;stroke-width:1px;stroke-linecap:butt;stroke-linejoin:miter;stroke-opacity:1"
       d="m 347.26312,699.75784 c 0,-0.33816 -35.64878,-100.61684 -79.2195,-222.84152 -43.57073,-122.22467 -79.41001,-223.31379 -79.64286,-224.6425 -0.52455,-2.9933 17.52586,-10.21528 51.00522,-20.40722 102.1636,-31.10109 207.48944,-30.01481 322.14286,3.32243 33.14878,9.63851 46.50312,14.5175 45.98534,16.80067 -0.24377,1.07493 -36.23796,102.41018 -79.9871,225.18945 -64.68732,181.54099 -79.94652,223.05799 -81.69963,222.28713 -1.18567,-0.52134 -7.29861,-2.85184 -13.58433,-5.1789 -21.62828,-8.00707 -51.79023,-6.94177 -75.60344,2.67026 -9.0128,3.63796 -9.39656,3.75231 -9.39656,2.8002 z"
       id="path3342"
       inkscape:connector-curvature="0" />
    <path
       style="fill:#cfe2f3;fill-opacity:0.94117647;stroke:none;stroke-opacity:1"
       d="m 345.66576,693.22984 c -1.0592,-3.53532 -2.57911,-5.72263 -3.98591,-5.73616 -1.83746,-0.0177 -1.89824,-0.25983 -0.31676,-1.26167 1.58025,-1.00106 1.4427,-1.53866 -0.71428,-2.79183 -1.46927,-0.85361 -1.92693,-1.57158 -1.01703,-1.59547 1.89268,-0.0497 -2.11843,-14.32916 -4.02507,-14.32916 -0.61109,0 -0.74103,-0.96428 -0.28877,-2.14285 0.5425,-1.41373 -0.0803,-2.18123 -1.83055,-2.25565 -1.45907,-0.062 -1.91815,-0.41405 -1.02021,-0.7823 1.81647,-0.74491 -1.98563,-14.8192 -4.00333,-14.8192 -0.61108,0 -0.74103,-0.96428 -0.28877,-2.14285 0.5425,-1.41373 -0.0803,-2.18123 -1.83055,-2.25565 -1.45906,-0.062 -1.91752,-0.41427 -1.01879,-0.78277 2.4559,-1.00697 -3.71836,-19.07171 -6.56817,-19.21723 -1.22907,-0.0627 -1.48396,-0.40995 -0.57469,-0.78277 2.4831,-1.01813 -3.72577,-19.09817 -6.56817,-19.12631 -1.53656,-0.0153 -1.69413,-0.34912 -0.51778,-1.09717 2.39284,-1.52165 -3.74828,-18.87282 -6.69031,-18.90283 -1.5071,-0.0154 -1.64146,-0.34113 -0.45255,-1.09717 2.39284,-1.52165 -3.74828,-18.87282 -6.6903,-18.90283 -1.50711,-0.0154 -1.64147,-0.34113 -0.45256,-1.09717 2.39284,-1.52165 -3.74828,-18.87282 -6.6903,-18.90283 -1.90519,-0.0194 -1.90526,-0.17827 -6.5e-4,-1.42857 1.34393,-0.88225 1.61024,-1.80618 0.71429,-2.47813 -0.78571,-0.58929 -1.45333,-1.71429 -1.48358,-2.5 -0.1225,-3.18145 -4.04707,-13.57143 -5.12628,-13.57143 -0.63669,0 -0.78758,-0.96429 -0.33532,-2.14286 0.54772,-1.42734 -0.0635,-2.15016 -1.83055,-2.16473 -1.73677,-0.0143 -2.06893,-0.3932 -0.96189,-1.09717 2.39284,-1.52164 -3.74828,-18.87281 -6.69031,-18.90283 -1.5071,-0.0154 -1.64146,-0.34113 -0.45255,-1.09717 2.39284,-1.52164 -3.74828,-18.87281 -6.6903,-18.90283 -1.60878,-0.0164 -1.69755,-0.30504 -0.35584,-1.15694 2.47088,-1.56887 -3.73974,-18.80886 -6.78767,-18.84179 -1.60855,-0.0174 -1.69712,-0.30617 -0.35519,-1.15821 2.47088,-1.56887 -3.73974,-18.80886 -6.78766,-18.84179 -1.60856,-0.0174 -1.69712,-0.30617 -0.3552,-1.15821 2.47089,-1.56887 -3.73973,-18.80886 -6.78766,-18.84179 -1.63885,-0.0177 -1.71511,-0.29462 -0.32424,-1.17734 2.55325,-1.62044 -3.60119,-18.79287 -6.74633,-18.82393 -1.67578,-0.0166 -1.77233,-0.30291 -0.39653,-1.17607 2.5268,-1.60366 -3.59024,-18.75414 -6.74633,-18.91484 -1.47148,-0.0749 -1.61565,-0.35469 -0.42943,-0.83333 2.64623,-1.06777 2.16419,-3.33629 -0.71428,-3.36147 -1.81444,-0.0159 -2.00302,-0.33733 -0.68767,-1.1722 1.43603,-0.91147 1.2979,-2.53832 -0.66529,-7.83526 -1.36269,-3.67673 -2.96163,-6.68496 -3.55321,-6.68496 -0.59157,0 -0.70556,-0.96428 -0.2533,-2.14285 0.54772,-1.42735 -0.0635,-2.15016 -1.83055,-2.16473 -1.8996,-0.0157 -2.13647,-0.3496 -0.83423,-1.17607 2.55326,-1.62045 -3.60119,-18.79288 -6.74632,-18.82394 -1.67578,-0.0165 -1.77233,-0.30291 -0.39653,-1.17607 2.55325,-1.62044 -3.60119,-18.79287 -6.74633,-18.82393 -1.64115,-0.0162 -1.75276,-0.31548 -0.4307,-1.15495 2.64654,-1.68048 -3.31665,-18.81511 -6.55845,-18.84505 -1.76302,-0.0163 -1.90167,-0.31834 -0.54213,-1.18108 1.40854,-0.89384 0.18654,-5.81193 -5.33817,-21.48403 l -7.16488,-20.32482 4.2577,-2.42267 c 2.34174,-1.33246 4.27162,-3.38695 4.28861,-4.56552 0.0229,-1.59002 0.32071,-1.68657 1.1542,-0.37426 1.54393,2.4309 10.25317,-0.84457 10.28341,-3.86751 0.0154,-1.54045 0.34194,-1.68338 1.10476,-0.48358 1.56579,2.46278 38.83354,-9.43915 38.88214,-12.41751 0.0258,-1.58217 0.32759,-1.6822 1.1533,-0.38229 1.6755,2.63775 27.40099,-3.6401 27.43123,-6.6941 0.0179,-1.80903 0.24759,-1.85297 1.26765,-0.24252 1.03011,1.6263 2.57211,1.66888 8.9067,0.246 4.2135,-0.94645 8.6252,-2.08448 9.80377,-2.52896 1.17857,-0.44448 3.91072,-0.66745 6.07143,-0.49547 2.95864,0.23548 3.93397,-0.33114 3.95045,-2.29499 0.0165,-1.97114 0.31638,-2.14308 1.22839,-0.7044 1.14737,1.80997 11.06715,1.41153 17.32116,-0.69572 1.17857,-0.39711 8.25,-1.03693 15.71429,-1.42182 8.34214,-0.43016 14.80994,-1.49968 16.78571,-2.7757 1.90476,-1.23015 3.21429,-1.4601 3.21429,-0.56442 0,1.02108 10.00812,1.46083 30.84622,1.35536 16.96543,-0.0859 31.21543,0.21307 31.66668,0.66431 1.70871,1.70871 16.05784,0.84851 16.10197,-0.96528 0.0239,-0.98214 0.7239,-0.61567 1.55557,0.81438 1.13034,1.94361 3.013,2.5282 7.45656,2.31538 3.26942,-0.15659 7.08015,0.19269 8.46825,0.77618 1.3881,0.58349 4.09782,0.76 6.02159,0.39225 1.92377,-0.36775 3.68091,-0.16554 3.90474,0.44937 0.22384,0.61491 4.26413,1.32505 8.97842,1.57809 4.71428,0.25304 8.9289,0.93915 9.36582,1.5247 0.43692,0.58555 4.12873,1.22841 8.20403,1.42857 4.07532,0.20017 7.41426,0.92103 7.4199,1.60191 0.006,0.68088 1.61739,0.93074 3.58167,0.55524 1.96429,-0.37549 3.57143,-0.23849 3.57143,0.30446 0,0.54295 5.16562,2.09722 11.47916,3.45393 6.31353,1.35671 19.60641,4.69418 29.53973,7.4166 14.0986,3.864 18.31343,4.55144 19.21324,3.13368 0.8795,-1.38573 1.15787,-1.30697 1.17457,0.3323 0.0151,1.48165 5.26517,3.82077 16.91555,7.53654 9.29152,2.96343 17.60172,6.0961 18.46711,6.96149 1.07181,1.07181 1.1336,2.73026 0.19381,5.20208 -1.0063,2.64678 -0.88144,3.94473 0.46148,4.79674 1.38188,0.87674 1.25025,1.17353 -0.52779,1.18995 -3.2418,0.0299 -9.20499,17.16456 -6.55844,18.84505 1.29338,0.82127 1.132,1.1391 -0.58647,1.15495 -3.25179,0.03 -10.63985,21.44481 -7.98092,23.13326 1.28746,0.81755 1.12453,1.13664 -0.58846,1.15246 -3.2418,0.0299 -9.20498,17.16456 -6.55844,18.84504 1.29374,0.8215 1.13304,1.1391 -0.58441,1.15496 -3.2418,0.0299 -9.20499,17.16456 -6.55845,18.84504 1.29375,0.8215 1.13305,1.1391 -0.58441,1.15496 -3.2418,0.0299 -9.20499,17.16456 -6.55844,18.84504 1.32205,0.83947 1.21044,1.13875 -0.4307,1.15496 -3.14515,0.031 -9.29959,17.20349 -6.74633,18.82393 1.3758,0.87316 1.27924,1.15951 -0.39653,1.17607 -3.14514,0.031 -9.29959,17.20349 -6.74633,18.82393 1.39087,0.88271 1.3146,1.15964 -0.32424,1.17734 -3.04793,0.033 -9.25854,17.27292 -6.78766,18.84179 1.34016,0.85093 1.24924,1.14054 -0.3632,1.15694 -3.09224,0.0314 -10.74468,21.51921 -8.23168,23.11427 1.37901,0.8753 1.29985,1.15509 -0.33175,1.17272 -3.04793,0.033 -9.25854,17.27291 -6.78765,18.84178 1.34191,0.85204 1.25335,1.14084 -0.3552,1.15822 -3.04793,0.033 -9.25855,17.27291 -6.78766,18.84178 1.34191,0.85204 1.25336,1.14084 -0.3552,1.15822 -3.04793,0.033 -9.25854,17.27291 -6.78766,18.84178 1.34192,0.85204 1.25336,1.14084 -0.3552,1.15822 -3.04793,0.033 -9.25854,17.27291 -6.78766,18.84178 1.34192,0.85204 1.25336,1.14084 -0.3552,1.15822 -3.04792,0.033 -9.25854,17.27291 -6.78765,18.84178 1.34191,0.85204 1.25335,1.14084 -0.3552,1.15822 -3.04793,0.033 -9.25855,17.27291 -6.78766,18.84178 1.25487,0.79677 0.99703,1.14159 -0.86519,1.15694 -1.76704,0.0146 -2.37827,0.73739 -1.83054,2.16473 0.45226,1.17857 0.33827,2.14286 -0.25331,2.14286 -0.59157,0 -2.19052,3.00823 -3.5532,6.68496 -1.96319,5.29694 -2.10133,6.92378 -0.66529,7.83525 1.29263,0.82046 1.0516,1.1566 -0.84051,1.1722 -1.7137,0.0143 -2.37427,0.7478 -1.86597,2.07243 0.43278,1.12782 0.22102,2.25282 -0.47056,2.5 -0.69159,0.2472 -6.69476,15.55659 -13.34036,34.02087 -13.3414,37.06803 -23.29967,63.51416 -25.37968,67.4007 -1.28755,2.40579 -1.72163,2.3877 -8.69839,-0.36227 -11.99779,-4.72908 -24.43566,-7.24118 -25.73436,-5.19761 -0.82241,1.29411 -1.10533,1.23816 -1.12168,-0.22184 -0.0177,-1.57683 -2.97629,-1.80413 -15.37902,-1.18149 -20.54243,1.03127 -26.44524,2.03771 -28.57143,4.87147 -1.00181,1.33522 -1.78571,1.63302 -1.78571,0.67837 0,-0.93588 -0.64286,-1.70161 -1.42857,-1.70161 -0.78572,0 -1.43842,1.125 -1.45044,2.5 -0.016,1.82124 -0.33522,2.0063 -1.17593,0.68161 -0.92233,-1.45325 -2.19953,-1.38154 -6.36082,0.35715 -7.31688,3.05718 -7.83293,2.86995 -9.75303,-3.53876 z"
       id="path3344"
       inkscape:connector-curvature="0" />
    <rect
       style="fill:#000000;fill-opacity:0.94117647;stroke:none;stroke-opacity:1"
       id="rect4146"
       width="1.4285715"
       height="698.57141"
       x="395.71429"
       y="-880.93372"
       transform="scale(1,-1)" />
    <rect
       transform="matrix(0.94147055,-0.33709525,-0.33709525,-0.94147055,0,0)"
       y="-977.6087"
       x="88.175446"
       height="786.83521"
       width="1.63924"
       id="rect4154"
       style="fill:#000000;fill-opacity:0.94117647;stroke:none;stroke-opacity:1" />
    <rect
       style="fill:#000000;fill-opacity:0.94117647;stroke:none;stroke-opacity:1"
       id="rect4156"
       width="2.0269992"
       height="784.61078"
       x="817.49243"
       y="-1191.9613"
       transform="matrix(0.95743255,-0.28865707,0.33687526,-0.94154928,0,0)" />
    <circle
       style="fill:#000000;fill-opacity:0.94117647;stroke:none;stroke-opacity:1"
       id="path4158"
       cx="397.14285"
       cy="845.21936"
       r="10" />
  </g>
  <g
     inkscape:groupmode="layer"
     id="layer4"
     inkscape:label="Layer 4">
    <rect
       style="fill:#ffffff;fill-opacity:1;stroke:none;stroke-opacity:1"
       id="rect4161"
       width="165.71428"
       height="137.14285"
       x="320"
       y="855.21936" />
  </g>
</svg>
